<?xml version="1.0" encoding="utf-8"?>
<!-- Generator: Adobe Illustrator 23.0.3, SVG Export Plug-In . SVG Version: 6.00 Build 0)  -->
<svg version="1.1" id="Layer_1" xmlns="http://www.w3.org/2000/svg" xmlns:xlink="http://www.w3.org/1999/xlink" x="0px" y="0px"
	 viewBox="0 0 1000 500" style="enable-background:new 0 0 1000 500;" xml:space="preserve">
<style type="text/css">
	.st0{fill:#222222;}
	.st1{fill:url(#SVGID_1_);}
	.st2{fill:url(#SVGID_2_);}
</style>
<g id="Ebene_2">
	<rect class="st0" width="1000" height="500"/>
</g>
<g>
	<g>
		
			<linearGradient id="SVGID_1_" gradientUnits="userSpaceOnUse" x1="400" y1="256.4087" x2="591.1826" y2="256.4087" gradientTransform="matrix(1 0 0 -1 0 502)">
			<stop  offset="0" style="stop-color:#FFFFFF"/>
			<stop  offset="1" style="stop-color:#555555"/>
		</linearGradient>
		<path class="st1" d="M400,334.9V156.2c0-3.5,2.8-6.2,6.2-6.2h178.7c5.6,0,8.4,6.7,4.4,10.7L410.7,339.3
			C406.7,343.3,400,340.5,400,334.9z"/>
	</g>
	<g>
		
			<linearGradient id="SVGID_2_" gradientUnits="userSpaceOnUse" x1="600" y1="206.3932" x2="508.8174" y2="206.3932" gradientTransform="matrix(1 0 0 -1 0 502)">
			<stop  offset="0" style="stop-color:#FFFFFF"/>
			<stop  offset="1" style="stop-color:#555555"/>
		</linearGradient>
		<path class="st2" d="M600,334.9v-78.7c0-3.5-2.8-6.2-6.2-6.2h-78.7c-5.6,0-8.4,6.7-4.4,10.7l78.7,78.7
			C593.3,343.3,600,340.5,600,334.9z"/>
	</g>
</g>
</svg>
