<?xml version="1.0" encoding="utf-8"?>
<!-- Generator: Adobe Illustrator 23.0.3, SVG Export Plug-In . SVG Version: 6.00 Build 0)  -->
<svg version="1.1" id="Layer_1" xmlns="http://www.w3.org/2000/svg" xmlns:xlink="http://www.w3.org/1999/xlink" x="0px" y="0px"
	 viewBox="0 0 500 500" style="enable-background:new 0 0 500 500;" xml:space="preserve">
<style type="text/css">
	.st0{fill:#222222;}
	.st1{fill:url(#SVGID_1_);}
	.st2{fill:url(#SVGID_2_);}
</style>
<g id="Ebene_2">
	<rect class="st0" width="500" height="500"/>
</g>
<g>
	<g>
		<linearGradient id="SVGID_1_" gradientUnits="userSpaceOnUse" x1="150" y1="245.588" x2="341.1759" y2="245.588">
			<stop  offset="0" style="stop-color:#FFFFFF"/>
			<stop  offset="1" style="stop-color:#555555"/>
		</linearGradient>
		<path class="st1" d="M150,334.9V156.2c0-3.5,2.8-6.2,6.2-6.2h178.7c5.6,0,8.4,6.7,4.4,10.7L160.7,339.3
			C156.7,343.3,150,340.5,150,334.9z"/>
	</g>
	<g>
		<linearGradient id="SVGID_2_" gradientUnits="userSpaceOnUse" x1="350" y1="295.588" x2="258.8241" y2="295.588">
			<stop  offset="0" style="stop-color:#FFFFFF"/>
			<stop  offset="1" style="stop-color:#555555"/>
		</linearGradient>
		<path class="st2" d="M350,334.9v-78.7c0-3.5-2.8-6.2-6.2-6.2h-78.7c-5.6,0-8.4,6.7-4.4,10.7l78.7,78.7
			C343.3,343.3,350,340.5,350,334.9z"/>
	</g>
</g>
</svg>
