<?xml version="1.0" encoding="utf-8"?>
<!-- Generator: Adobe Illustrator 23.0.3, SVG Export Plug-In . SVG Version: 6.00 Build 0)  -->
<svg version="1.1" id="Layer_1" xmlns="http://www.w3.org/2000/svg" xmlns:xlink="http://www.w3.org/1999/xlink" x="0px" y="0px"
	 viewBox="0 0 1000 500" style="enable-background:new 0 0 1000 500;" xml:space="preserve">
<style type="text/css">
	.st0{fill:#121212;}
</style>
<path class="st0" d="M499.63,87.67l-167.31,96.47V377.8l59.42,34.53l59.42-34.53v-55.7l103.15,58.85l59.42-33.73v-62.73l53.95-31.35
	v-69.01L499.63,87.67z M499.64,100.28l151.63,87.04l-107.94,62.73l54.04,30.67l-43.11,25.63l-97.65-56.36l108.66-62.71l-65.66-37.65
	l-107.88,62.69l-43.04-25.01L499.64,100.28z M505.1,165.38l38.25,21.93l-38.25,22.07V165.38z M343.26,371.51V196.79l43.01,24.99
	V396.5L343.26,371.51z M440.22,371.51L397.2,396.5V221.79l96.96-56.34v50.25l-53.95,31.14V371.51z M451.15,259.46l97.69,56.38v49.4
	l-97.69-55.73V259.46z M559.78,365.27V315.8l43.01-25.57v50.63L559.78,365.27z M608.87,274.67l-43.57-24.73l91.45-53.14v50.05
	L608.87,274.67z"/>
</svg>
