<?xml version="1.0" encoding="utf-8"?>
<!-- Generator: Adobe Illustrator 23.0.3, SVG Export Plug-In . SVG Version: 6.00 Build 0)  -->
<svg version="1.1" id="Layer_1" xmlns="http://www.w3.org/2000/svg" xmlns:xlink="http://www.w3.org/1999/xlink" x="0px" y="0px"
	 viewBox="0 0 1000 500" style="enable-background:new 0 0 1000 500;" xml:space="preserve">
<style type="text/css">
	.st0{fill:#FFFFFF;}
	.st1{fill:#121212;}
</style>
<path class="st0" d="M990.01,500H9.99C4.47,500,0,495.53,0,490.01V9.99C0,4.47,4.47,0,9.99,0h980.03c5.52,0,9.99,4.47,9.99,9.99
	v480.03C1000,495.53,995.53,500,990.01,500z"/>
<path class="st1" d="M499.73,131l-122.65,70.72v141.97L420.64,369l43.56-25.31v-40.83L539.81,346l43.56-24.73v-45.99l39.55-22.98
	v-50.59L499.73,131z M499.74,140.25l111.16,63.81l-79.13,45.98l39.62,22.48l-31.6,18.79l-71.58-41.32l79.65-45.97l-48.14-27.6
	l-79.08,45.96l-31.55-18.33L499.74,140.25z M503.74,187.97l28.04,16.08l-28.04,16.18V187.97z M385.1,339.08V210.99l31.53,18.32
	v128.08L385.1,339.08z M456.18,339.08l-31.53,18.32V229.32l71.08-41.3v36.84l-39.55,22.83V339.08z M464.19,256.93l71.61,41.33v36.21
	l-71.61-40.85V256.93z M543.82,334.5v-36.26l31.53-18.75v37.12L543.82,334.5z M579.81,268.08l-31.94-18.13L614.9,211v36.69
	L579.81,268.08z"/>
</svg>
