<?xml version="1.0" encoding="utf-8"?>
<!-- Generator: Adobe Illustrator 23.0.3, SVG Export Plug-In . SVG Version: 6.00 Build 0)  -->
<svg version="1.1" id="Layer_1" xmlns="http://www.w3.org/2000/svg" xmlns:xlink="http://www.w3.org/1999/xlink" x="0px" y="0px"
	 viewBox="0 0 1000 500" style="enable-background:new 0 0 1000 500;" xml:space="preserve">
<style type="text/css">
	.st0{fill:#222222;}
	.st1{fill:url(#SVGID_1_);}
	.st2{fill:url(#SVGID_2_);}
	.st3{fill:none;stroke:#4F4F4F;stroke-miterlimit:10;}
	.st4{fill:url(#SVGID_3_);}
	.st5{fill:url(#SVGID_4_);}
</style>
<rect class="st0" width="1000" height="500"/>
<g>
	<g>
		<g>
			
				<linearGradient id="SVGID_1_" gradientUnits="userSpaceOnUse" x1="216.4672" y1="-321.5913" x2="407.6498" y2="-321.5913" gradientTransform="matrix(1 0 0 -1 0 -76)">
				<stop  offset="0" style="stop-color:#FFFFFF"/>
				<stop  offset="1" style="stop-color:#555555"/>
			</linearGradient>
			<path class="st1" d="M216.5,334.9V156.2c0-3.5,2.8-6.2,6.2-6.2h178.7c5.6,0,8.4,6.7,4.4,10.7L227.2,339.3
				C223.2,343.3,216.5,340.5,216.5,334.9z"/>
		</g>
		<g>
			
				<linearGradient id="SVGID_2_" gradientUnits="userSpaceOnUse" x1="416.4672" y1="-371.6068" x2="325.2846" y2="-371.6068" gradientTransform="matrix(1 0 0 -1 0 -76)">
				<stop  offset="0" style="stop-color:#FFFFFF"/>
				<stop  offset="1" style="stop-color:#555555"/>
			</linearGradient>
			<path class="st2" d="M416.5,334.9v-78.7c0-3.5-2.8-6.2-6.2-6.2h-78.7c-5.6,0-8.4,6.7-4.4,10.7l78.7,78.7
				C409.8,343.3,416.5,340.5,416.5,334.9z"/>
		</g>
	</g>
	<path class="st3" d="M544.4,238.6h-15.7c-1.3,0-2.3-1-2.3-2.3v-15.7c0-1.3-1-2.3-2.3-2.3h-9.4c-1.3,0-2.3,1-2.3,2.3v15.7
		c0,1.3-1,2.3-2.3,2.3h-15.7c-1.3,0-2.3,1-2.3,2.3v9.4c0,1.3,1,2.3,2.3,2.3h15.7c1.3,0,2.3,1,2.3,2.3v15.7c0,1.3,1,2.3,2.3,2.3h9.4
		c1.3,0,2.3-1,2.3-2.3v-15.7c0-1.3,1-2.3,2.3-2.3h15.7c1.3,0,2.3-1,2.3-2.3v-9.4C546.7,239.6,545.7,238.6,544.4,238.6z"/>
	<g>
		
			<linearGradient id="SVGID_3_" gradientUnits="userSpaceOnUse" x1="593.7307" y1="246.9233" x2="783.5328" y2="246.9233" gradientTransform="matrix(1 0 0 -1 0 502)">
			<stop  offset="0" style="stop-color:#FFFFFF"/>
			<stop  offset="1" style="stop-color:#555555"/>
		</linearGradient>
		<path class="st4" d="M783.5,167.5v175.2c0,4-3.2,7.2-7.2,7.2H600.9c-6.4,0-9.6-7.8-5.1-12.3l175.4-175.2
			C775.7,157.8,783.5,161.1,783.5,167.5z"/>
		
			<linearGradient id="SVGID_4_" gradientUnits="userSpaceOnUse" x1="715.2962" y1="351.9" x2="715.2962" y2="262.2945" gradientTransform="matrix(1 0 0 -1 0 502)">
			<stop  offset="0" style="stop-color:#FFFFFF"/>
			<stop  offset="1" style="stop-color:#555555"/>
		</linearGradient>
		<path class="st5" d="M758.1,162.2l-75.7,75.4c-4.5,4.5-12.1,1.3-12.1-5v-75.4c0-3.9,3.2-7.1,7.1-7.1h75.7
			C759.5,150.1,762.6,157.8,758.1,162.2z"/>
	</g>
</g>
</svg>
